<svg xmlns="http://www.w3.org/2000/svg" viewBox="0 0 250 56" width="250" height="56" fill="none">
  <g transform="translate(0,-2) scale(0.9)">
  <g fill="none" stroke-linecap="round" stroke-linejoin="round">
    <g stroke="#37d0c8" stroke-width="2" opacity="0.4">
      <line x1="8" y1="52" x2="57" y2="52"/>
      <line x1="14" y1="52" x2="14" y2="30"/>
      <line x1="38" y1="52" x2="38" y2="45"/>
      <line x1="50" y1="52" x2="50" y2="41"/>
    </g>
    <path d="M9 52 C9 33 11 19 24 19 C32 19 33 33 30 41 L35 45" stroke="#37d0c8" stroke-width="5"/>
    <path d="M41 45 L46 41 C48 45 50 48 56 52" stroke="#37d0c8" stroke-width="5"/>
    <path d="M35 45 A9 9 0 1 1 41 45" stroke="#ff5a5f" stroke-width="5"/>
    <rect x="18" y="12" width="12" height="6.4" rx="2.6" fill="#ff5a5f"/>
    <circle cx="21.2" cy="10.7" r="1.35" fill="#eaf7ff"/>
    <circle cx="26.8" cy="10.7" r="1.35" fill="#eaf7ff"/>
  </g>
  </g>
  <text x="64" y="37" font-family="system-ui,-apple-system,'Segoe UI',Roboto,Arial,sans-serif" font-weight="800" font-size="29" letter-spacing="-0.6" fill="#f4f7ff">Coaster <tspan fill="#37d0c8">Hub</tspan></text>
</svg>
